<svg width="12" height="11" viewBox="0 0 12 11" fill="none" xmlns="http://www.w3.org/2000/svg">
<path d="M11.0021 3.57287L7.95835 3.12912L6.59794 0.370792C6.35419 -0.120874 5.64794 -0.127124 5.4021 0.370792L4.04169 3.12912L0.997937 3.57287C0.452103 3.65204 0.233353 4.32495 0.629187 4.71037L2.83127 6.8562L2.31044 9.88744C2.21669 10.4354 2.79377 10.8458 3.2771 10.5895L6.00002 9.15828L8.72294 10.5895C9.20627 10.8437 9.78335 10.4354 9.6896 9.88744L9.16877 6.8562L11.3709 4.71037C11.7667 4.32495 11.5479 3.65204 11.0021 3.57287ZM8.09585 6.5062L8.5896 9.38953L6.00002 8.02911L3.41044 9.38953L3.90419 6.5062L1.80835 4.46454L4.70419 4.0437L6.00002 1.41871L7.29585 4.0437L10.1917 4.46454L8.09585 6.5062Z" fill="white"/>
</svg>
